PathFileType	4	(X/Y/Z)	Patient4_TMGait_0pt5_02_left_37.trc.trc
DataRate	CameraRate	NumFrames	NumMarkers	Units	OrigDataRate	OrigDataStartFrame	OrigNumFrames
75.675675675676	75.675675675676	4	33	mm	75.675675675676	106	       141
Frame#	Time	Sacral			L.Shoulder			Chest			R.Shoulder			Neck			R.ASIS			L.ASIS			R.Thigh.Superior			R.Thigh.Lateral			R.Thigh.Inferior			R.Patella			L.Thigh.Superior			L.Thigh.Lateral			L.Thigh.Inferior			L.Patella			L.Shank.Superior			L.Shank.Lateral			L.Shank.Inferior			R.Shank.Superior			R.Shank.Lateral			R.Shank.Inferior			R.Heel			R.Midfoot.Superior			R.Midfoot.Lateral			R.Toe			L.Heel			L.Midfoot.Lateral			L.Midfoot.Superior			L.Toe			L.Elbow			L.Wrist			R.Elbow			R.Wrist			
		X1	Y1	Z1	X2	Y2	Z2	X3	Y3	Z3	X4	Y4	Z4	X5	Y5	Z5	X6	Y6	Z6	X7	Y7	Z7	X8	Y8	Z8	X9	Y9	Z9	X10	Y10	Z10	X11	Y11	Z11	X12	Y12	Z12	X13	Y13	Z13	X14	Y14	Z14	X15	Y15	Z15	X16	Y16	Z16	X17	Y17	Z17	X18	Y18	Z18	X19	Y19	Z19	X20	Y20	Z20	X21	Y21	Z21	X22	Y22	Z22	X23	Y23	Z23	X24	Y24	Z24	X25	Y25	Z25	X26	Y26	Z26	X27	Y27	Z27	X28	Y28	Z28	X29	Y29	Z29	X30	Y30	Z30	X31	Y31	Z31	X32	Y32	Z32	X33	Y33	Z33	

106	49.017500000000	772.188331671126	1018.455356120474	526.931633365316	950.633294718918	1436.009383371958	329.006602766486	1065.544532513485	1360.917706839018	479.173305238243	1005.241409082139	1440.344237423762	660.897913572376	970.545589112984	1497.867373890625	478.442505110662	1004.565096502210	942.606787147886	622.813564844138	968.286241379752	966.149869108202	351.356657419162	1034.090011049148	739.390503371465	589.540012770100	950.339727481935	634.673027364795	650.221294912162	1019.617438619012	579.986463907896	564.611033435148	1016.488780451325	491.518840277527	567.764665373231	1055.035755338409	791.678081984012	379.171307958957	1012.150232958223	665.014525885223	301.691752074529	1118.452824533500	605.020889678736	359.148927582784	1136.997169558681	519.371056401903	351.422591997835	1083.596265578479	447.213660671798	342.583889780910	955.941736726774	375.571475444172	294.267289907820	975.591853886597	245.841757489471	344.481451916042	985.873049792593	404.662902881709	573.636109597036	914.650004002441	302.364182856008	635.970131707977	947.913193552099	207.797053036570	568.003113249026	805.329114224181	46.308009752237	541.042913636996	979.277979968687	97.602200467586	568.545364172473	892.105379836300	37.706235824825	610.994427172037	1099.871799901870	39.829666136840	590.053025116227	807.222839627712	140.340100866970	384.470034385976	868.653280680385	111.766398943355	300.059852067197	970.009212434569	139.307430706940	318.434807247968	1066.260126301815	47.497249834142	282.216436265020	858.004330232967	1087.761799929467	227.909626437323	869.845802695199	828.915948782625	216.093314508956	1040.284548224818	1103.950084658561	795.189822565670	1277.491627207267	1023.828286243188	744.900639091122	
107	49.030714285714	770.376473279232	1019.419551745052	527.798131830717	949.065997841280	1436.573802806187	329.730779022213	1065.106135469252	1360.564166506328	478.554780543172	1007.073174619654	1440.157015309796	660.971410139494	970.536030531893	1497.969128079660	479.012768966604	1002.843691675130	942.399110198830	622.276228231936	965.594069122045	966.794781679487	350.929135940904	1030.151734805098	738.740244669041	588.791191349528	945.960727842550	634.676962939410	650.126724020470	1014.302348964399	579.486622609196	564.227689813760	1010.458472586582	491.323666696917	567.432695242509	1052.488101381439	793.283730069649	379.001253716126	1010.338173581988	666.413192574327	301.159659102222	1116.276840865342	606.797725382727	359.407386819199	1136.532448793842	523.166557496304	351.527596243782	1087.456196497511	450.052789017396	341.935514115670	965.729730314452	369.951395407593	292.453361344135	994.478282243306	241.520596182974	342.426464440015	979.791377352421	404.491516612269	573.451258598476	908.490092845173	302.357738123058	635.877077343279	941.532582846403	207.725600619070	567.952230879156	798.655044695476	46.298330120217	541.089901061805	972.635963940103	97.561319709720	568.540967193823	885.445975472160	37.685377535419	611.036492053342	1093.195655774440	39.807511633877	590.079149349264	834.387184932090	123.183905524807	381.298010860874	898.158380889946	100.226399560910	296.937876782325	996.975034777510	135.260228307380	315.891823084991	1100.128228102789	51.598853197296	279.491507795629	848.079319191987	1091.051681161646	228.216423542181	854.845110423875	831.999240714058	217.082846634389	1052.023236774523	1105.863122253739	795.324572322000	1291.801573888153	1038.995567307980	740.263864442548	
108	49.043928571429	768.615166145872	1020.165829088330	528.494084307850	947.525758715996	1436.995513327526	330.347032168174	1064.577965073134	1360.080674335207	477.904031622502	1008.654959377646	1439.788379125369	660.943804640157	970.398508955616	1497.915736332740	479.489945227783	1001.129934944593	942.058012408433	621.642766755077	963.001574122801	967.203803486875	350.380544739213	1026.329544778934	738.016464601928	588.027470086618	941.748998661144	634.555591075519	649.982484270895	1009.222805072864	578.909587026885	563.834426614488	1004.673545013090	491.021931681637	567.089886411835	1049.545483785560	794.110533582686	378.779642626038	1007.905529546170	667.204825419861	300.487676226003	1113.175668146294	607.679025496321	359.822097051736	1135.063876369871	526.307376638448	351.790714839431	1090.442703446933	452.565734473260	341.412861655814	975.470609915940	364.268542597013	290.422218593397	1013.095175914921	237.769470376093	340.492861833492	973.896527103182	404.197775560795	573.229037296776	902.460159569982	302.251647242324	635.730061023853	935.211038541482	207.547362674938	567.858197133046	791.969331577670	46.232142819830	541.122925638226	965.966172303749	97.498431925920	568.504574522621	878.777270776272	37.642186891439	611.074300941584	1086.511051532820	39.794562176569	590.098276061828	862.082384499808	107.193783812093	377.827460795101	928.168600948075	89.799943456172	293.895983919594	1023.828733229204	132.165507147298	313.733647558753	1133.422591420583	56.949515217934	277.914694062422	838.622307717093	1094.301454014738	228.560726670144	840.604902404876	835.088853599082	218.161764877517	1063.458865469760	1107.852763243745	795.011479971913	1304.992543530581	1054.073002061640	735.265693652703	
109	49.057142857143	766.915742015321	1020.679813282147	529.018941040932	946.013925379879	1437.262803194356	330.832584166018	1063.951556100373	1359.479507417290	477.221474152666	1009.946112207654	1439.249829123313	660.807483835893	970.123476915812	1497.709789830679	479.855286541227	999.450118261972	941.589014001556	620.934360676122	960.525345987444	967.363815374373	349.727683007163	1022.661739699817	737.221525305565	587.248944019991	937.737860028118	634.306022913209	649.784255100041	1004.396420340063	578.249912379483	563.414534079028	999.153565319409	490.602531508367	566.721940687953	1046.266118882910	794.190512703159	378.513975266346	1004.995904560046	667.437690453198	299.641149897062	1109.337024012966	607.756005205168	360.326630752652	1132.777387701558	528.821533978557	352.166500265432	1092.642718694327	454.766927478553	341.016896769350	985.075510175045	358.755090815894	288.235489691986	1031.094641786356	234.771412646784	338.782159780173	968.204771993269	403.776488316134	572.961689886184	896.574300330351	302.044935668902	635.532843548053	928.949052856274	207.260845778290	567.717143412387	785.271535587384	46.108146963207	541.145586952537	959.266245010849	97.415271969135	568.439981131248	872.098321808702	37.578184520017	611.112732297988	1079.817859579029	39.793848701720	590.112273964966	889.677075975244	92.860764993394	374.223861873360	958.049933751524	80.821084111680	291.102794984752	1050.023652749815	130.183450899951	312.091958675619	1165.468455812694	63.490009205119	277.648163296835	829.713998268013	1097.426242404341	228.956723065999	827.129122926311	838.101586573757	219.308970819984	1074.520728296735	1109.898124255477	794.229890808280	1317.049063603893	1068.934444215015	729.959143838118	
